M48
;DRILL file {KiCad 4.0.7} date 10/04/18 18:58:08
;FORMAT={-:-/ absolute / inch / decimal}
FMAT,2
INCH,TZ
T1C0.024
T2C0.028
T3C0.030
T4C0.031
T5C0.035
T6C0.036
%
G90
G05
M72
T1
X5.8Y-5.55
X6.2Y-5.55
X7.25Y-2.65
X7.45Y-4.9
X7.45Y-5.3
X7.5Y-2.9
X7.65Y-2.65
X7.85Y-2.65
X7.9Y-2.9
X7.95Y-3.35
X8.1Y-2.9
X8.25Y-2.65
X8.35Y-3.35
X8.5Y-2.9
X8.95Y-3.35
X9.05Y-3.35
X10.15Y-3.35
X10.25Y-3.35
X10.7Y-3.7
X10.8Y-3.15
X10.8Y-3.55
X11.1Y-3.7
T2
X7.Y-5.7
X7.1Y-5.7
X7.2Y-5.7
X7.65Y-2.35
X7.75Y-2.35
X9.4Y-5.7
X9.5Y-5.7
X9.6Y-5.7
X10.95Y-5.3
X10.95Y-5.4
X10.95Y-5.5
T3
X7.6Y-3.15
X7.6Y-3.25
X7.6Y-3.35
X7.6Y-3.45
X7.6Y-3.55
X7.6Y-3.65
X7.6Y-3.75
X7.6Y-3.85
X7.8Y-3.2
X7.8Y-3.3
X7.8Y-3.4
X7.8Y-3.5
X7.8Y-3.6
X7.8Y-3.7
X7.8Y-3.8
X7.8Y-4.3
X7.8Y-4.6
X7.8Y-4.8
X7.8Y-4.9
X7.8Y-5.
X7.9Y-3.4
X7.9Y-3.7
X10.65Y-3.25
X10.65Y-3.55
X10.75Y-3.95
X10.75Y-4.55
X10.75Y-4.75
X10.75Y-4.95
X10.9Y-3.05
X10.9Y-3.15
X10.9Y-3.25
X11.05Y-3.95
X11.05Y-4.55
X11.05Y-4.75
X11.05Y-4.95
T4
X8.95Y-2.2
X8.95Y-3.2
X10.15Y-2.2
X10.15Y-3.2
T5
X8.4Y-5.35
X8.95Y-3.55
X9.25Y-3.55
X9.25Y-5.35
X9.6Y-5.35
X10.15Y-3.55
X10.45Y-3.55
X10.45Y-5.35
T6
X5.95Y-3.2
X5.95Y-3.3
X5.95Y-3.4
X5.95Y-3.5
X5.95Y-3.6
X5.95Y-3.7
X5.95Y-3.8
X5.95Y-3.9
X5.95Y-4.
X5.95Y-4.1
X5.95Y-4.2
X5.95Y-4.3
X5.95Y-4.4
X5.95Y-4.5
X5.95Y-4.6
X5.95Y-4.7
X5.95Y-4.8
X5.95Y-4.9
X5.95Y-5.
X5.95Y-5.1
X6.05Y-3.2
X6.05Y-3.3
X6.05Y-3.4
X6.05Y-3.5
X6.05Y-3.6
X6.05Y-3.7
X6.05Y-3.8
X6.05Y-3.9
X6.05Y-4.
X6.05Y-4.1
X6.05Y-4.2
X6.05Y-4.3
X6.05Y-4.4
X6.05Y-4.5
X6.05Y-4.6
X6.05Y-4.7
X6.05Y-4.8
X6.05Y-4.9
X6.05Y-5.
X6.05Y-5.1
X6.75Y-3.2
X6.75Y-3.3
X6.75Y-3.4
X6.75Y-3.5
X6.75Y-3.6
X6.75Y-3.7
X6.75Y-3.8
X6.75Y-3.9
X6.75Y-4.
X6.75Y-4.1
X6.75Y-4.2
X6.75Y-4.3
X6.75Y-4.4
X6.75Y-4.5
X6.75Y-4.6
X6.75Y-4.7
X6.75Y-4.8
X6.75Y-4.9
X6.75Y-5.
X6.75Y-5.1
X6.85Y-3.2
X6.85Y-3.3
X6.85Y-3.4
X6.85Y-3.5
X6.85Y-3.6
X6.85Y-3.7
X6.85Y-3.8
X6.85Y-3.9
X6.85Y-4.
X6.85Y-4.1
X6.85Y-4.2
X6.85Y-4.3
X6.85Y-4.4
X6.85Y-4.5
X6.85Y-4.6
X6.85Y-4.7
X6.85Y-4.8
X6.85Y-4.9
X6.85Y-5.
X6.85Y-5.1
T0
M30
